<?xml version="1.0" encoding="iso-8859-1"?>
<!-- Generator: Adobe Illustrator 19.0.0, SVG Export Plug-In . SVG Version: 6.00 Build 0)  -->
<svg version="1.1" id="Capa_1" xmlns="http://www.w3.org/2000/svg" xmlns:xlink="http://www.w3.org/1999/xlink" x="0px" y="0px"
	 viewBox="0 0 512 512" style="enable-background:new 0 0 512 512;" xml:space="preserve">
<path style="fill:#32D736;" d="M481,467c0-74.401-60.601-135-135-135h-22.5c-12.9,0-18.6-16.201-9.3-24
	c47.401-40.2,76.8-122,76.8-173C391,60.599,330.399,0,256,0S121,60.599,121,135c0,51,29.399,132.8,76.8,173c9.3,7.798,3.6,24-9.3,24
	H166c-74.399,0-135,60.599-135,135v30c0,8.399,6.599,15,15,15h420c8.401,0,15-6.601,15-15V467z"/>
<path style="fill:#10BB67;" d="M346,332c74.399,0,135,60.599,135,135v30c0,8.399-6.599,15-15,15H256V0c74.399,0,135,60.599,135,135
	c0,51-29.399,132.8-76.8,173c-9.3,7.798-3.6,24,9.3,24H346z"/>
<g>
</g>
<g>
</g>
<g>
</g>
<g>
</g>
<g>
</g>
<g>
</g>
<g>
</g>
<g>
</g>
<g>
</g>
<g>
</g>
<g>
</g>
<g>
</g>
<g>
</g>
<g>
</g>
<g>
</g>
</svg>
